<?xml version="1.0" encoding="UTF-8"?>
<svg id="Logo_-_Rounded_Corners" data-name="Logo - Rounded Corners" xmlns="http://www.w3.org/2000/svg" viewBox="0 0 954.45 1032.56">
  <path id="Mouth" d="M672.78,596.17c-6.49,0-11.72,5.36-11.51,11.84,1.72,53.2-61.62,84.32-184.05,84.32s-185.77-31.11-184.05-84.32c.21-6.48-5.02-11.84-11.51-11.84h-39.68c-6.08,0-11.13,4.73-11.51,10.8-2.23,36.46,11.01,68.87,39.96,91.66,42.43,33.83,97.94,47.72,206.79,47.72s164.36-13.88,206.79-47.72c28.95-22.8,42.19-55.2,39.96-91.66-.37-6.07-5.42-10.8-11.51-10.8h-39.68Z"/>
  <path id="Left_Eye" data-name="Left Eye" d="M398.21,390.96c57.76-30.04,40.63-151.28-27.53-131.8-57.76,30.05-40.63,151.29,27.53,131.8Z"/>
  <path id="Right_Eye" data-name="Right Eye" d="M583.76,390.96c58.88-30.71,38.78-152.35-27.53-131.8-58.88,30.72-38.78,152.36,27.53,131.8Z"/>
</svg>