<?xml version="1.0" encoding="UTF-8"?>
<svg id="Layer_1" data-name="Layer 1" xmlns="http://www.w3.org/2000/svg" viewBox="0 0 400 400">
  <defs>
    <style>
      .cls-1 {
        fill: #4287ff;
      }
    </style>
  </defs>
  <path id="Left_Eye_Wink" class="cls-1" d="M311.64,253.7l3.07-29.74c.47-4.55-1.8-8.95-5.78-11.21-51.8-29.29-97.42-56.14-138.71-81.54-4.64-2.86-10.65-2.06-14.4,1.9l-21.45,22.67c-4.98,5.26-3.92,13.76,2.19,17.64,27.3,17.33,47.38,29.2,61.93,37.76-26.36,2.19-71.37,1.11-101.55,.56-6.8-.12-12.21,5.63-11.69,12.4,.82,10.61,1.98,25.59,2.75,35.47,.46,5.89,5.3,10.47,11.21,10.62,51.91,1.34,160.37-2.73,201.95-6.23,5.52-.46,9.91-4.79,10.48-10.3Z"/>
</svg>