<?xml version="1.0" encoding="UTF-8"?>
<svg id="Layer_1" data-name="Layer 1" xmlns="http://www.w3.org/2000/svg" viewBox="0 0 806.4 400">
  <defs>
    <style>
      .cls-1 {
        fill: #4287ff;
      }
    </style>
  </defs>
  <path id="Mouth_Big_Surprise" class="cls-1" d="M609.99,109.38c-42.43-33.83-97.94-47.72-206.79-47.72s-164.36,13.88-206.79,47.72c-28.67,22.58-41.93,54.58-40.01,90.62-1.92,36.04,11.34,68.04,40.01,90.62,42.43,33.83,97.94,47.72,206.79,47.72s164.36-13.88,206.79-47.72c28.67-22.58,41.93-54.58,40.01-90.62,1.92-36.04-11.34-68.04-40.01-90.62Zm-206.79,174.93c-122.43,0-185.77-31.11-184.05-84.32-1.72-53.2,61.62-84.32,184.05-84.32s185.77,31.11,184.05,84.32c1.72,53.2-61.62,84.32-184.05,84.32Z"/>
</svg>