<?xml version="1.0" encoding="UTF-8"?>
<svg id="Layer_1" data-name="Layer 1" xmlns="http://www.w3.org/2000/svg" viewBox="0 0 806.4 400">
  <defs>
    <style>
      .cls-1 {
        fill: #4287ff;
      }
    </style>
  </defs>
  <path id="Mouth_Signature_Smile" class="cls-1" d="M645.14,278.13c-.97-6.27-6.83-10.57-13.1-9.63-30.5,4.59-57.16,8.8-113.58,13.91-259.53,23.55-357.49-34.21-265.57-154.31,5.66-7.4,11.48-15,21.99-26.24,4.36-4.66,4.12-11.97-.55-16.32l-25.76-23.99c-4.45-4.14-11.37-4.12-15.77,.07-9.62,9.14-16.47,16.51-19.54,20.01-69.67,79.32-75.88,165.71-16.86,212.18,50.58,40.33,119.72,51.89,275.69,46.47,61.23-2.13,136.82-12.33,168.35-17.17,6.29-.97,10.6-6.86,9.63-13.15l-4.92-31.83Z"/>
</svg>