<?xml version="1.0" encoding="UTF-8"?>
<svg id="Layer_1" data-name="Layer 1" xmlns="http://www.w3.org/2000/svg" viewBox="0 0 806.4 400">
  <defs>
    <style>
      .cls-1 {
        fill: #4287ff;
      }
    </style>
  </defs>
  <path id="Mouth_Big_Smile" class="cls-1" d="M598.76,124.91c-6.49,0-11.72,5.36-11.51,11.84,1.72,53.2-61.62,84.32-184.05,84.32s-185.77-31.11-184.05-84.32c.21-6.48-5.02-11.84-11.51-11.84h-39.68c-6.08,0-11.13,4.73-11.51,10.8-2.23,36.46,11.01,68.87,39.96,91.66,42.43,33.83,97.94,47.72,206.79,47.72s164.36-13.88,206.79-47.72c28.95-22.8,42.19-55.2,39.96-91.66-.37-6.07-5.42-10.8-11.51-10.8h-39.68Z"/>
</svg>