<svg width="24" height="24" viewBox="0 0 24 24" fill="none" xmlns="http://www.w3.org/2000/svg">
<path d="M0.405118 16.6H1.41872C1.5278 16.6 1.62752 16.5384 1.67631 16.4408L3.11734 13.5592C3.16612 13.4616 3.26584 13.4 3.37492 13.4H11.8358C12.0638 13.4 12.2014 13.6525 12.0778 13.8442L7.74658 20.5558C7.62291 20.7475 7.76048 21 7.98857 21H9.98552C10.0748 21 10.1589 20.9586 10.2135 20.888L15.9081 13.512C15.9626 13.4414 16.0468 13.4 16.136 13.4H22.3627C22.7222 13.4 23.0611 13.2322 23.279 12.9462L23.5381 12.6061C23.811 12.2481 23.811 11.7519 23.5381 11.3939L23.279 11.0538C23.0611 10.7678 22.7222 10.6 22.3627 10.6H16.136C16.0468 10.6 15.9626 10.5586 15.9081 10.488L10.2135 3.112C10.1589 3.04137 10.0748 3 9.98552 3H7.98857C7.76048 3 7.62291 3.25252 7.74658 3.44416L12.0778 10.1558C12.2014 10.3475 12.0639 10.6 11.8358 10.6H3.37492C3.26584 10.6 3.16612 10.5384 3.11734 10.4408L1.67631 7.55919C1.62752 7.46163 1.5278 7.4 1.41872 7.4H0.405118C0.20696 7.4 0.0679996 7.59547 0.133107 7.78263L1.56732 11.9054C1.58864 11.9667 1.58864 12.0333 1.56732 12.0946L0.133107 16.2174C0.0679995 16.4045 0.206959 16.6 0.405118 16.6Z" fill="#6B7280"/>
</svg>
