<svg width="48" height="50" viewBox="0 0 48 50" fill="none" xmlns="http://www.w3.org/2000/svg">
<path d="M41.3267 0.921935C25.8004 4.77271 15.1611 6.66618 4.69594 7.86647C4.10127 7.93488 3.68354 8.48577 3.77931 9.0768L4.18427 11.5896C4.27365 12.1459 4.78715 12.5326 5.34716 12.4652C21.9442 10.4631 29.9403 8.65268 33.9133 7.73969C32.3044 9.53739 29.2545 12.2873 27.2215 14.1425C26.7636 14.5602 26.7654 15.2807 27.2242 15.6966C27.9438 16.3479 28.9599 17.2672 29.6293 17.8738C30.0288 18.2358 30.6363 18.2349 31.0376 17.8747C34.5609 14.7098 41.49 7.64119 44.0255 4.80281C44.3621 4.42613 44.3821 3.86338 44.0748 3.46298L42.4139 1.30045C42.1594 0.969362 41.7326 0.820695 41.3267 0.921024V0.921935Z" fill="#4287FF"/>
<path d="M46.0965 43.1072C46.008 42.5353 45.4735 42.1431 44.9017 42.2289C42.1198 42.6475 39.6882 43.0315 34.5423 43.4976C10.8712 45.6455 1.93655 40.3774 10.3203 29.4234C10.8366 28.7484 11.3674 28.0552 12.326 27.0301C12.7237 26.6051 12.7018 25.9383 12.2758 25.5416L9.92632 23.3535C9.52045 22.9759 8.88929 22.9777 8.48798 23.3599C7.61056 24.1935 6.98579 24.8657 6.70579 25.1849C0.351362 32.4195 -0.215038 40.2989 5.16803 44.5373C9.7813 48.2157 16.0874 49.2701 30.313 48.7758C35.8977 48.5815 42.792 47.6512 45.6678 47.2097C46.2415 47.1213 46.6346 46.584 46.5461 46.0103L46.0974 43.1072H46.0965Z" fill="#4287FF"/>
</svg>
