<svg width="24" height="24" viewBox="0 0 24 24" fill="none" xmlns="http://www.w3.org/2000/svg">
<path d="M20.1834 0.574188L13.0308 2.10986C9.08924 2.9734 5.20659 3.56926 3.89708 3.75198C2.51983 3.94415 1.81301 3.91853 1.72546 4.05243C1.63791 4.18633 1.67997 4.75542 1.79586 5.30905C1.98899 6.23178 2.15981 6.3116 3.83788 6.23004C5.348 6.06527 7.99659 5.66778 10.8755 5.06518C13.799 4.49177 16.1689 4.03424 16.1689 4.03424C16.1766 4.07115 15.4067 4.8102 14.4462 5.74324L12.6712 7.38614L13.618 8.22817L14.5724 9.10712L17.3509 6.36809C18.883 4.85308 20.4521 3.33035 20.8701 2.93465C21.5156 2.33723 21.5216 2.18187 20.8933 1.38876L20.1834 0.574188Z" fill="white"/>
<path d="M5.78525 12.1699C6.3398 12.862 6.33981 12.9773 5.26766 14.3615C1.23787 19.6288 5.52646 22.0895 16.9134 21.1283C19.6862 20.8591 22.1632 20.6284 22.422 20.59C22.6438 20.5516 22.8656 21.0514 22.9396 21.705C23.0875 23.2813 22.6808 23.3582 14.88 23.6658C8.04045 23.8965 5.00887 23.3967 2.79064 21.6281C0.202698 19.5904 0.498459 15.8225 3.53004 12.3237C4.45431 11.2856 4.97189 11.2472 5.78525 12.1699Z" fill="white"/>
</svg>
